<svg xmlns="http://www.w3.org/2000/svg" height="20" width="20"><path d="M5 16q-1.042 0-1.771-.729Q2.5 14.542 2.5 13.5H1V5q0-.625.438-1.062Q1.875 3.5 2.5 3.5H14v3h2.5L19 10v3.5h-1.5q0 1.042-.729 1.771Q16.042 16 15 16q-1.042 0-1.771-.729-.729-.729-.729-1.771h-5q0 1.042-.729 1.771Q6.042 16 5 16Zm0-1.5q.417 0 .708-.292Q6 13.917 6 13.5t-.292-.708Q5.417 12.5 5 12.5t-.708.292Q4 13.083 4 13.5t.292.708q.291.292.708.292Zm10 0q.417 0 .708-.292.292-.291.292-.708t-.292-.708Q15.417 12.5 15 12.5t-.708.292Q14 13.083 14 13.5t.292.708q.291.292.708.292Zm-1-4 3.5-.021L15.729 8H14Z"/></svg>