<svg xmlns="http://www.w3.org/2000/svg" height="20" width="20"><path d="M2.5 16q-.625 0-1.062-.438Q1 15.125 1 14.5V6h1.5v8.5h14V16Zm3-3q-.625 0-1.062-.438Q4 12.125 4 11.5v-6q0-.604.438-1.052Q4.875 4 5.5 4h12q.604 0 1.052.448Q19 4.896 19 5.5v6q0 .625-.448 1.062Q18.104 13 17.5 13ZM7 11.5q0-.604-.448-1.052Q6.104 10 5.5 10v1.5Zm9 0h1.5V10q-.625 0-1.062.448Q16 10.896 16 11.5Zm-4.5-.5q1.042 0 1.771-.719Q14 9.562 14 8.5q0-1.042-.729-1.771Q12.542 6 11.5 6q-1.062 0-1.781.729Q9 7.458 9 8.5q0 1.062.719 1.781.719.719 1.781.719Zm-6-4q.604 0 1.052-.438Q7 6.125 7 5.5H5.5Zm12 0V5.5H16q0 .625.438 1.062Q16.875 7 17.5 7Z"/></svg>