<svg xmlns="http://www.w3.org/2000/svg" height="20" width="20"><path d="M14 18q-1.667 0-2.833-1.167Q10 15.667 10 14q0-1.667 1.167-2.833Q12.333 10 14 10q1.667 0 2.833 1.167Q18 12.333 18 14q0 1.667-1.167 2.833Q15.667 18 14 18Zm1.146-2.146.708-.708-1.354-1.354V12h-1v2.208ZM4.5 17q-.625 0-1.062-.438Q3 16.125 3 15.5v-11q0-.625.448-1.062Q3.896 3 4.5 3h3.562q.209-.708.709-1.104Q9.271 1.5 10 1.5q.75 0 1.25.396T11.938 3H15.5q.604 0 1.052.438Q17 3.875 17 4.5v4.896q-.354-.229-.719-.406-.364-.178-.781-.282V4.5H14V7H6V4.5H4.5v11h4.208q.146.438.292.792.146.354.396.708ZM10 4.5q.312 0 .531-.219.219-.219.219-.531 0-.312-.219-.531Q10.312 3 10 3q-.312 0-.531.219-.219.219-.219.531 0 .312.219.531.219.219.531.219Z"/></svg>